/* XPM */
static char *c979de1bf7b24a5ea3d971958055ec1b59V4EDuT1KTil6HD[] = {
/* columns rows colors chars-per-pixel */
"96 80 11 1 ",
"  c None",
". c black",
"X c #495900",
"o c #794100",
"O c #C37100",
"+ c #8A8A00",
"@ c #FFA200",
"# c #305182",
"$ c #4192C3",
"% c #61D3E3",
"& c #A2FFF3",
/* pixels */
".O@@@@@@@@@@@@@O.O@@@@@@@@@@@@@O.o@o@@@@@@@OoOo..O@@@@@@XXo@@@@O.O@@@@@@@@@@@@@O.O@@@@@@@@@@@@@O",
".@@@@@@@@@@@@@@@.@@@@@@@@@@@@@@@.o@@@@@@@@@O@@o..@@@@@@OX+o@+@@@.@@@@@@@@@@@@@@@.@@@@@@@@@@@@@@@",
".OO@@@@@@@@@@@@@.OO@@@@@@@@@@@@@.o@OOOOOOOOOo@o..OO@@+XO++o+++@@.OO@@@@@@@@@@@@@.OO@@@@@@@@@@@@@",
".O@@@@@@@@@@@@O@.O@@@@@@@@@@@@O@.o@OO@OO@O@@o@o..O@@++XOX+X@@@O@.O@@@@@@@@@@@@O@.O@@@@@@@@@@@@@@",
".@@@@O@@@@@@ooO@.@@@@O@@@@@@ooO@.o@O@@@@O@@@o@o..@@++X@@O++oooO@.@@@@O@@@@@@ooO@.@@@@@@@@@@OO@@@",
".O@O@@o@@@@oo@@@.O@O@@o@@@@oo@@@.o@OO@@@@@@@o@o..O@O@@o@@O++o@@@.O@O@@o@@@@oo@@@.O@O@@@@OO@@@OO@",
".OOooOOooOOoOOOO.OOooOOooOOoOOOO.o@O@@@@@@@@o@o..OOooOOooX++OOOO.OOooOOooOOoOOOO.OOooOOooOOoOOOO",
".ooooo.o..oo.ooo.ooooo.o..oo.ooo.o@O@@@@@@@@o@o..ooooo.oX++X.ooo.ooooo.o..oo.ooo.ooooo.o..oo.ooo",
"..@O@@@@oO@@@@@@O@O@@@@oO@@@@@@o.o@O@@@@@@@@oOo.O++++OO+++Xo@@@.O@O@@@@oO@@@@@@oO@O@@@@oO@@@@@@@",
".@@@@@@@o@@@@@@@@@@@@@@o@@@@@@@o.o@O@O@@@@@@o@o.@@.+.O++XXo@@@@@@@@@@@@o@@@@@@@o@@@@@@@o@@@@@@@@",
".@@@@@@@o@@@@@@@@@@@@@@o@OOO@oo@.o@OOO@@O@OOo@o.@@@..++Xoo@@@@@@@@@@@@@o@OOO@oo@@@@@@@@o@@@@@@@@",
".@@@@@@@o@@OO@@@@@@@@@@oO@@@@o@@.o@oooooooooo@o.@@@O++Xo+++@@@@@@@@@@@@oO@@@@o@@@@@@@@@o@@@@@@@@",
".@@@@@O@oOOo@@@@@@@@@O@o@@@@o@@@.o@@O@@OOO@@@@o.@@O++XooX++@@@@@@@@@@O@o@@@@o@@@@@@@@@@o@@@@@@@@",
".O@@@@@O.Oo@@@@@O@@@@@O.@@@oo@@@.o@@@@@@@OO@@Oo.O@O+XoO.@@+@o@@@O@@@@@O.@@@oo@@@O@@@@@O.O@@@@@@@",
".@@@@@@@oo.oooooOoooOOO.Oo.ooOOO..OOOOOOOOOOOO..Ooo+XoO.OOooOOOOOoooOOO.Oo.ooOOOOOOOOOO.OOOOOOOO",
".@@@@@@@.O@@@@@oOoooOOO.o.o.ooOo..OOOOOOOoOOOO..OoX++oo.Oo.@OOOoOoooOOO.o.o.ooOoOOOOOOO.OOOOOOOo",
".O@@@@@Oo@@@@@@o..oOOOo.o....ooO..OOooOooOoOoO..OOX++++.o.@OOOOOOOoOOOo.o....ooOOOOOOOo.oOOOOOOO",
".OO@@@@ooO@@@@@@..OOooo......ooo..oooooooooooo..ooOXX+++o.OOOoooooOOooo......oooooOOooo.oOOOOooo",
".O@@@@@OoO@@@@@@.......................................++X......................................",
".@@@@@@O.@@@@@@@.......o.oooooo.....oOOOOOOo...o.ooOOOooo+.oooXo.ooOOOoOoOOOOOOo.ooOOOOOOOOOOOOO",
".@@@@@@ooO@@@@@@......o.o.oooooo.o..OOO@OOoo..oo.OOOOOoo++.oo+XX.OOOOOOOOOOOOOOO.OOOOOOOOOOOOOOO",
".@@O@@@OoO@@@@@O.......o....oooo.oo.oO@@@Ooo..oo.OOOOoo++X.++X...OOOOOOOOOOOOOOo.OOO+OOOOOOOOOOo",
".OOOOOOO.@@@@@@O......o.o..o.ooo.oo..oO@OOo..ooo.ooooo++X..+X.oo.oo.oooooo.ooooo.ooO++OOoOoO+ooo",
"..ooooo..@@@@O@@..........o.o.o..oo....o.....ooo.o.oo++XXXXX.oo..o.o.oooo.o.o.o..o.ooXXooXooXoo.",
".@@@@@@ooO@@@@OO.....................oOOOoo..........++.........................................",
".@@@@@@O.O@@@@OO........oo.oooooOOOo.oO@Ooo..oOOOOOO.X+.OoOOOoOoOOOoooo...@OOOOOOOOOOOOOO.OOOOOO",
".O@@@@@OoO@@@@@O............oooooooo.ooOooo.oooooXOo.+X.ooOooooo...oo.oo..@@@OOOoXOoOOooo.Oooooo",
".OO@@@@ooO@@@@@@...........o.oooooo..........oo..XXo.XX.XXXXXooo.....o.o..ooo.o..XXoXoo...XXoooo",
".O@@@@@OoO@@@@@O............oo.o......oOoo...........XX........o...............o................",
".O@@@@@ooO@@@@@@.................Oooo.OOOo.ooooo.oO..XX.oooOoooo.oo.oo.oo..ooooo.oO.oooOoooOoooo",
".@@@@@OoooOO@@Oo.......X.XXX.XXX.oXXX.oOoo.ooooo.XXX.X..XXXXXXXX.XXXXXXXXXXXXXXX.XXXXXXXXXXXXXXX",
".O@@@@@o.ooooooo................................................................................",
".............................XX+++++++X+++++++++++++++X+++++++++                                ",
".....................X.XXXXXXX+X++++++X++X+++++++++XXXX+++++++++                                ",
"........................X.XX.XX+X+++++X+X+X+++++X+X++XX+X+++++++                                ",
".....................X.X.X..X.XX++++++X+++++X++++X+++XX++X++X+++                                ",
".....................X........XXX++++X.+++++X+++X+X+++.XXXXX++++                                ",
"................................XXXX....XXXX.XXXXXXXX...XXXXXXX.                                ",
".....................XXX..XXXXXXXX+++++++++++++XX+++++++++++++++                                ",
".......................X.....X.XX++++++X+X+X++++X+++++++X+++++XX                                ",
".......................X....X...X+++X+XX++X+++++X++X+X+X+X+XXXXX                                ",
"...........................X.X..X+++XXX+++++++++XX+XXX++XXXXXXXX                                ",
".................................+++XX++++++++++..XXXXX.XXXXXXXX                                ",
"....................XXX.X.XXX++++++X+X+++++++++++++++++X+++++++X                                ",
".....................XX..XXXXX+X++++X+X++++++X++++X++++X++++++++                                ",
"......................X.X.XXXXX+++++XXX++++++X+++++XX+XX++X+X++X                                ",
".........................X.XXX..+X++++X+++++X++X+XX+X+X.+X++++XX                                ",
"..........................XXX...XXXXXX.X...X.XXXXXXXXX..XXXXXXXX                                ",
"                ......$..#%#$$$$$$$$$$%$$$%$$$$$#.O.oooOOOoo.@.#                                ",
"                .....$..#.%$#$$$$$$$$%$$$$%$$$$$#.O.oO@@@OOO.@.#                                ",
"                ..##$$$#.##%#$$$$$&&&%%$$$$&$$$$#.O.oooOOOoo.O.#                                ",
"                .#.....$#.#%%%$$$&####$&$$$&&%$$#.@..........O.#                                ",
"                .......$.#%###%$%###$$%&$$&#$$%$#.O.oooOOOoo.O.$                                ",
"                ......$$$$####$%##$$$$&$&%#$$$$%$.@.oO@@@Ooo.@.#                                ",
"                .#....$#$$####%#%%$$$%$#$%$$$$%##.O.oooOOOOo.@.$                                ",
"                .#$$$###..%##%#$$%%%%####$%$$%#$#.O..........O.#                                ",
"                ..####...#.%%#$$$$%%##$$$$$&&#$$#.@.ooO@@OOo.O.#                                ",
"                ....#.....%##%$$$$$$&$$$$$&$#%$$#.@.OO@@OOoo.@.#                                ",
"                ...##$$..%###$%$$$$&&&&$$%$#$$%$#.O.oOO@@OOo.@.#                                ",
"                ..#....$.%###$$%$$&$#$$&%%#$$$$%$.@..........O.#                                ",
"                .##.....$.##$$%%$%%#$$$$%%$$$$%%#.O.ooOOOooo.@.#                                ",
"                ..#....$$.$##$#$%$%$$$$%%$%$$%#$#.O.OO@@OOoo.@.$                                ",
"                ...##$$...%#$##$$$$%%%%$$$%%%#$$#.@.ooOOOooo.@.#                                ",
"                ......%..#%##$$$$$$$$$%$$$%$#$$$#.@..........@.#                                ",
"                X+++........X+++o@@O@@@@@@@@@@O..@@OOOOOOOOOO@@.                                ",
"                X+..+XXXXX+X.X++O@@@O@@@@@@@@@@..@............@.                                ",
"                X.X+XXXX+XXXX.X+oO@@@O@@@@@@@@@..O.oooOOOOOoo.@.                                ",
"                ..+XX+X+++XX.X.XOoO@@@@@@@@@@@o..O.oO@@OO@OOOo@.                                ",
"                .XXX+++.+XX.X...O@@@@@@@@@@@@O@..O..oOOoooooo.@.                                ",
"                .X+XX+X...X..X..O@@@@@@@@O@@O@@..O.oooooOOOOoo@.                                ",
"                .+++XX..X...X...OO@@@@@OO@@@@@@..OoOOOO@@@@OOO@.                                ",
"                .X+XX..XXX.XXX..OOO@OOOO@@@@@@O..@.oOOOOOOoooo@.                                ",
"                ..X.X.X.X...X...oOOOooOOOOOOOOO..@..oOooOOOoo.@.                                ",
"                .XXX.XXX..X.....oOOO@@OOOOoOOOo..@@@O@@@@@@@O@@.                                ",
"                X.X...X..X..XX..oOOoOOOOOOOOOOO..@..oo.Ooo.o..@.                                ",
"                XX..o...XXX.X..+oOOOOOoOOOoOoOo..O.ooo.@oo.Oo.O.                                ",
"                ++...oo..X.....+ooOoOOoOOooooOo..O.Ooo.@oo.OooO.                                ",
"                +++++.oOooo...++oooooOooo.oooO...Oo@oo.@oo.@ooO.                                ",
"                +++++.oOo....+++.oo..o...o..oo...oO@OOoOooo@OOo.                                ",
"                XXXXXX......XXXX................................                                "
};
