/* XPM */
static char *fa633c6c641a417189e6519b718d9511us9ueJby0YojKSLT[] = {
/* columns rows colors chars-per-pixel */
"96 96 21 1 ",
"  c None",
". c #3F3851",
"X c #584B57",
"o c #6E5967",
"O c #89365C",
"+ c #9E3B57",
"@ c #AE444E",
"# c #BF5753",
"$ c #926475",
"% c #AD707B",
"& c #D25654",
"* c #CD7363",
"= c #E27F6D",
"- c #EDA27F",
"; c #B77F83",
": c #C39490",
"> c #D1B1A5",
", c #FBCA97",
"< c #DCCABE",
"1 c #FFEAB7",
"2 c #FFFAD6",
/* pixels */
"X..............................................................................................X",
".-,1211,-.=-,,1211,121,1,,-=.=-,121,,1221,,-=.=-,,1121,,-=.=-,,121,1,,-=.=-,,122111,-=.-,1121,-.",
".,,,,,,,,.=,,,,,,,,,,,,,,,,=.=,,,,,,,,,,,,,,=.=,,,,,,,,,,=.=,,,,,,,,,,,=.=,,,,,,,,,,,=.,,,,,,,,.",
".,,,,,,,,.=,,,,,,,,,,,,,,,,=.=,,,,,,,,,,,,,,=.=,,,,,,,,,,=.=,,,,,,,,,,,=.=,,,,,,,,,,,=.,,,,,,,,.",
".,,,,,,,,.=-,,,,,,,,,,,,,,-=.=-,,,,,,,,,,,,-=.=-,,,,,,,,-=.=-,,,,,,,,,-=.=-,,,,,,,,,-=.,,,,,,,,.",
".-,,,,,,-.==-,,,,,,,,,,,,-==.==-,,,,,,,,,,-==.==-,,,,,,-==.==-,,,,,,,-==.==-,,,,,,,-==.-,,,,,,-.",
".=-,,,,-=.==================.================.============.=============.=============.=-,,,,-=.",
".========.&================&.&==============&.&==========&.&===========&.&===========&.========.",
".&======&..............................................................................&======&.",
"................................................................................................",
".======&.........O+@@@+O.O+@@@+O.O+@@@+O.........O+@@@+O.........O+@@@+O.O+@@@+O........&======.",
".-,,-===..O@@@@O.+@@@@@+.+@@@@@+.+@@@@@+.O@@@@@O.+@@@@@+.O@@@@@O.+@@@@@+.+@@@@@+.O@@@O..===-,,-.",
".,,,,-==................................................................................==-,,,,.",
".,,,,,==....O@@@@@@O.O@@@@O.O@@@@@@O.O@@@@O.O@@@@@@O.O@@@@O.O@@@@@@O.O@@@@O.O@@@@@@O....==,,,,1.",
".1,,,,==....@@#****#.#****#.#******#.#****#.#******#.#****#.#******#.#****#.#****#@@....==,,,,1.",
".1,,,,==....O@*****@.@****@.@******@.@****@.@******@.@****@.@******@.@****@.@*****@O....==,,,,,.",
".2,,,,==................................................................................==,,,,1.",
".2,,,,==..O@@@#@.@*****@.@*****@.@*****@.@*****@.@*****@.@*****@.@*****@.@*****@.#@@@O..==,,,,2.",
".1,,,,==..@@@@**.*******.*******.*******.*******.*******.*******.*******.*******.*@@@@..==,,,,1.",
".,,,,,==..O@@@#@.@*****@.@*****@.@*****@.@*****@.@*****@.@*****@.@*****@.@*****@.#@@@O..==,,,,,.",
".,,,,-==................................................................................==-,,,,.",
".-,,-===....O#*****@.#****#.@******@.#****#.@******@.#****#.@******@.#****#.@*****#O....===-,,-.",
".======&....@*******.@#**#@.********.@#**#@.********.@#**#@.********.@#**#@.*******@....&======.",
"............O#*****@........@******@........@******@........@******@........@*****#O............",
".======&................................................................................&======.",
".-,,-===..O@@@#@.@****@....................................................@***@.#@@@O..===-,,-.",
".,,,,-==..@@@@**.******....................................................*****.*@@@@..==-,,,,.",
".,,,,,==..O@@@#@.@****@....................................................@***@.#@@@O..==,,,,1.",
".1,,,,==................................................................................==,,,,2.",
".,,,,,==....O******@.@**@...............................................#*@.@*****#O....==,,,,2.",
".1,,,,==....@*******.****...............................................***.*******@....==,,,,1.",
".1,,,,==....O******@.@**@...............................................@*#.@*****#O....==,,,,,.",
".1,,,,==................................................................................==,,,,,.",
".,,,,,==..O@@@#@.@*****@.................................................@*****@.#@@@O..==,,,,1.",
".,,,,-==..@@@@**.*******.................................................*******.*@@@@..==,,,,2.",
".-,,-===..O@@@#@.@*****@.................................................@*****@.#@@@O..==,,,,2.",
".======&................................................................................==,,,,1.",
"............O#*****@.@**@...............................................#*@.@*****#O....==,,,,2.",
".======&....@*******.****...............................................***.*******@....==,,,,1.",
".-,,-===....O#*****@.@**@...............................................@*#.@*****#O....==,,,,,.",
".,,,,-==................................................................................==,,,,1.",
".,,,,,==..O@@@#@.@*****@.................................................@*****@.#@@@O..==,,,,1.",
".1,,,,==..@@@@**.*******.................................................*******.*@@@@..==-,,,,.",
".2,,,,==..O@@@#@.@*****@.................................................@*****@.#@@@O..===-,,-.",
".1,,,,==................................................................................&======.",
".1,,,,==....O#*****@.@**@...............................................#*@.@*****#O............",
".,,,,,==....@*******.****...............................................***.*******@....&======.",
".,,,,-==....O#*****@.@**@...............................................@*#.@*****#O....===-,,-.",
".-,,-===................................................................................==-,,,,.",
".======&..O@@@#@.@*****@.................................................@*****@.#@@@O..==,,,,,.",
"..........@@@@**.*******.................................................*******.*@@@@..==,,,,1.",
".======&..O@@@#@.@*****@.................................................@*****@.#@@@O..==,,,,1.",
".-,,-===................................................................................==,,,,2.",
".,,,,-==....O#*****@.@**@...............................................#*@.@*****#O....==,,,,1.",
".1,,,,==....@*******.****...............................................***.*******@....==,,,,,.",
".1,,,,==....O#*****@.@**@...............................................@*#.@*****#O....==-,,,,.",
".,,,,,==................................................................................===-,,-.",
".1,,,,==..O@@@#@.@*****@.................................................@*****@.#@@@O..&======.",
".2,,,,==..@@@@**.*******.................................................*******.*@@@@..........",
".1,,,,==..O@@@#@.@*****@.................................................@*****@.#@@@O..&======.",
".2,,,,==................................................................................===-,,-.",
".2,,,,==....O#*****@.@**@...............................................#*@.@*****#O....==-,,,,.",
".1,,,,==....@*******.****...............................................***.*******@....==,,,,,.",
".,,,,,==....O#*****@.@**@...............................................@*#.@*****#O....==,,,,1.",
".,,,,,==................................................................................==,,,,1.",
".1,,,,==..O@@@#@.@*****@.................................................@*****@.#@@@O..==,,,,1.",
".2,,,,==..@@@@**.*******.................................................*******.*@@@@..==,,,,,.",
".2,,,,==..O@@@#@.@*****@.................................................@*****@.#@@@O..==,,,,1.",
".1,,,,==................................................................................==,,,,,.",
".,,,,-==....O#*****@........................................................@*****#O....==-,,,,.",
".-,,-===....@*******........................................................*******@....===-,,-.",
".======&....O#*****@........................................................@*****#O....&======.",
"................................................................................................",
".======&..O@@@#@.........@*****@.........@*****@.........@*****@.........@*****@.#@@@O..&======.",
".-,,-===..@@@@**.@#***#@.*******.@#***#@.*******.@#***#@.*******.@#***#@.*******.*@@@@..===-,,-.",
".,,,,-==..O@@@#@.#*****#.@*****@.#*****#.@*****@.#*****#.@*****@.#*****#.@*****@.#@@@O..==-,,,,.",
".,,,,,==................................................................................==,,,,,.",
".1,,,,==....O#*****@.@****@.@******@.@****@.@******@.@****@.@******@.@****@.@*****#O....==,,,,1.",
".2,,,,==....@*******.******.********.******.********.******.********.******.*******@....==,,,,2.",
".1,,,,==....O#*****@.@****@.@******@.@****@.@******@.@****@.@******@.@****@.@*****#O....==,,,,1.",
".,,,,,==................................................................................==,,,,,.",
".1,,,,==..O@@@*@.@*****@.@*****@.@*****@.@*****@.@*****@.@*****@.@*****@.@*****@.*@@@O..==,,,,1.",
".1,,,,==..@@@@#*.#*****#.#*****#.#*****#.#*****#.#*****#.#*****#.#*****#.#*****#.#@@@@..==,,,,,.",
".,,,,-==..O@@@@O.O@@@@@O.O@@@@@O.O@@@@@O.O@@@@@O.O@@@@@O.O@@@@@O.O@@@@@O.O@@@@@O.O@@@O..==-,,,,.",
".-,,-===................................................................................===-,,-.",
".======&....O@@@@@@O........O@@@@@@O.O@@@@O..........O@@@@O.O@@@@@@O........O@@@@@@O....&======.",
"................................................................................................",
".&======&..............................................................................&======&.",
".========.&===========&.&===========&.&==========&.&==============&.&================&.========.",
".=-,,,,-=.=============.=============.============.================.==================.=-,,,,-=.",
".-,,,,,,-.==-,,,,,,,-==.==-,,,,,,,-==.==-,,,,,,-==.==-,,,,,,,,,,-==.==-,,,,,,,,,,,,-==.-,,,,,,-.",
".,,,,,,,,.=-,,,,,,,,,-=.=-,,,,,,,,,-=.=-,,,,,,,,-=.=-,,,,,,,,,,,,-=.=-,,,,,,,,,,,,,,-=.,,,,,,,,.",
".,,,,,,,,.=,,,,,,,,,,,=.=,,,,,,,,,,,=.=,,,,,,,,,,=.=,,,,,,,,,,,,,,=.=,,,,,,,,,,,,,,,,=.,,,,,,,,.",
".,,,,,,,,.=,,,,,,,,,,,=.=,,,,,,,,,,,=.=,,,,,,,,,,=.=,,,,,,,,,,,,,,=.=,,,,,,,,,,,,,,,,=.,,,,,,,,.",
".-,1211,-.=-,,1,121,,-=.=-,,1,121,,-=.=-,,1211,,-=.=-,,1221,,121,-=.=-,,1,121,1121,,-=.-,1121,-.",
"X..............................................................................................X"
};