/* XPM */
static char *e3aa79fe2124411282df2da753e86fabLPw89ubqQMdBcYOB[] = {
/* columns rows colors chars-per-pixel */
"64 64 31 1 ",
"  c None",
". c #553A3A",
"X c #402E30",
"o c #82604F",
"O c #715148",
"+ c #634440",
"@ c #1C1C1F",
"# c #28282B",
"$ c #393940",
"% c #2C2C30",
"& c #553A3A",
"* c #402E30",
"= c #82604F",
"- c #715148",
"; c #634440",
": c #DEA48A",
"> c #BA8A79",
", c #4B555E",
"< c #785A53",
"1 c #753030",
"2 c #8C3430",
"3 c #783A3D",
"4 c #A14343",
"5 c #B35249",
"6 c #8A3E3E",
"7 c #323942",
"8 c #4B6275",
"9 c #1C1C1F",
"0 c #393940",
"q c #2C2C30",
"w c white",
/* pixels */
"                                                                ",
"                                                                ",
"                                                                ",
"                                                                ",
"                                                                ",
"                                                                ",
"                                                                ",
"                                                                ",
"                                                                ",
"                                                                ",
"                                                                ",
"                                                                ",
"                                                                ",
"                                                                ",
"                                                                ",
"                                                                ",
"                                                                ",
"                                                                ",
"                                                                ",
"                                                                ",
"                            ......XX                            ",
"                            ......XX                            ",
"                        ....ooOOOO++XXXX                        ",
"                        ....ooOOOO++XXXX                        ",
"                            &&&&&&**                            ",
"                            &&&&&&**                            ",
"                        &&&&==----;;****                        ",
"                        &&&&==----;;****                        ",
"                      &&==&&&&&&&&;;;;;;**                      ",
"                      &&==&&&&&&&&;;;;;;**                      ",
"                    &&====--&&&&------;;;;**                    ",
"                    &&====--&&&&------;;;;**                    ",
"                    &&==----------;;----;;**                    ",
"                    &&==----------;;----;;**                    ",
"                  &&==--;;----;;----;;--;;**                    ",
"                  &&==--;;----;;----;;--;;**                    ",
"                  &&====&&==--&&==--&&;;;;**                    ",
"                  &&====&&==--&&==--&&;;;;**                    ",
"                    &&&&&&&&&&::&&&&&&;;;;&&**                  ",
"                    &&&&&&&&&&::&&&&&&;;;;&&**                  ",
"                  **&&>>,,::::::,,::&&--&&--**                  ",
"                  **&&>>,,::::::,,::&&--&&--**                  ",
"                  **&&<<,,::::::,,::::&&;;&&**                  ",
"                  **&&<<,,::::::,,::::&&;;&&**                  ",
"                  1122<<::::::::::::::<<2211                    ",
"                  1122<<::::::::::::::<<2211                    ",
"                **--;;**<<<<>>>>>><<<<**;;--**                  ",
"                **--;;**<<<<>>>>>><<<<**;;--**                  ",
"                ******334455555555555533******                  ",
"                ******334455555555555533******                  ",
"                    3344445555555555555533                      ",
"                    3344445555555555555533                      ",
"                  <<>>>>335555555566555533                      ",
"                  <<>>>>335555555566555533                      ",
"                  <<>>>>3355555555<<::::<<                      ",
"                  <<>>>>3355555555<<::::<<                      ",
"                    <<<<3333444444<<::::<<                      ",
"                    <<<<3333444444<<::::<<                      ",
"                            77778888<<<<                        ",
"                            77778888<<<<                        ",
"                              9900qq99                          ",
"                              9900qq99                          ",
"                        @@##@@@@$$%%@@                          ",
"                        @@##@@@@$$%%@@                          "
};
