/* XPM */
static char *_58b5d1342cf462ba27fa365cb5e510fytVn1732b3srfG9g[] = {
/* columns rows colors chars-per-pixel */
"64 64 37 1 ",
"  c #3F3851",
". c #25667E",
"X c #6E5967",
"o c #E44B3B",
"O c #B9355C",
"+ c #926475",
"@ c #AD707B",
"# c #DA4949",
"$ c #E36254",
"% c #D2727E",
"& c #F07860",
"* c #EF895A",
"= c #CD8674",
"- c #F69972",
"; c #F6C27D",
": c #5D7889",
"> c #5F7D93",
", c #B77F83",
"< c #298A91",
"1 c #37AB9C",
"2 c #728896",
"3 c #768EA1",
"4 c #B98080",
"5 c #86A0A8",
"6 c #8CA9B5",
"7 c #C39490",
"8 c #E28989",
"9 c #DEB19C",
"0 c #EDA799",
"q c #D1B1A5",
"w c #DCCABE",
"e c #FBCAAE",
"r c #ECD4BE",
"t c #FFEFA9",
"y c #A5C2C7",
"u c #FAEBCF",
"i c #F2F7F6",
/* pixels */
"XXXXXXXXXXXXXXXXXXXXXXXXXXXXXXXXXXXXXXXXXXXXXXXXXXXXXXXXXXXXXXXX",
"@7777qqqqq77q77777777777777777@X@7777qqqqq77q77777777777777777@X",
"7777777777777777777777777777777X7777777777777777777777777777777X",
"77777777777777777777@7@@@@@77XXX77777777777777777777@7@@@@@77XXX",
"777777777777777777XXXXXXXXXXXXXXXXXXXXXXXXXXXX7777777q7qqq7777,X",
"7777777777777777XXe0X0eeeueuue0X0eeeueuuue0X0eXX777777777777777X",
"77777777777777XX0eeeXeeeeeeeeeeXeeeeeeeeeeeXeee0XX7777777777777X",
"@777777777777X0uueeeXeeeeeeeeeeXeeeeeeeeeeeXeeeuu0X77777777777@X",
"XXXXXXXXXXXXX0ueeee0X0eeeeeeee0X0eeeeeeeee0X0eeeeu0XXXXXXXXXXXXX",
"qqq77777777X0ueee088X8888888888X88888888888X880eeeu0X7qqqqq77777",
"77777777777Xeeee088%XXXXXXXXXXXXXXXXXXXXXXXX%880eeeeX77777777777",
"7777777@@7X0eee088XXX+@@@@@@@+XX:XX+@@@@@@+XXX880eee0X7777777777",
"777777q7qqXeeee88XXX+@@@@@@@@@XX:XX@@@@@@@@+XXX88eeeeX7777777777",
"777777777X0eee08XXXXXXXXXXXXXXXX:XXXXXXXXXXXXXXX80eee0X777777777",
"777777777Xeeee88XX+@@@@@@@@@@+XX:XXXXXXXXXXXXXXX88eeeeX777777777",
"777777777Xeeee8XX+@@477777774@XX2XX@477777774@+XX8eeeeX777777777",
"XXXXXXXXXX0ee08XX@@@777777777@XX2XX@777777777@@XX80ee0XXXXXXXXXX",
"@777q7qqwXXXXXXXXXXXXXXXXXXXXXXX:XXXXXXXXXXXXXXXXXXXXXX7777777@X",
"777777777X0ee08XXXX@7777777777@X2X@777777777@XXXX80ee0X77777777X",
"777777777Xeeee8X:2:X77777777777X:X7777777777X:2:X8eeeeX77777777X",
"777777777Xueee8X252X77777777777X2X7777777777X252X8eeeuX7777777,X",
"777777777Xueee8XXXX@77777    77      7  7777@XXXX8eeeuX@7@7XXXXX",
"777777777Xeeee8X@7777777 o*;*  *;;t;t t; 777777@X8eeeeX7q7qq777X",
"@77777777Xueee8XXXXXXXXX **;;  ;;   t tt XXXXXXXX8eeeuX7777777@X",
"XXXXXXXXXXeeee8XXXXXXXXX **;;*;;;* *t;tt 777777@X8eeeeXXXXXXXXXX",
"777777777Xeeee8X+@@@@@@@ o*;;*;;;;;;t;t; 7777777X8eeeeXqqwwwqq77",
"777777777Xeeee8X@@@@@@@@                 7777777X8eeeeX777777777",
"7777@@@77X0ee08X+@@@@@@ >3 >33y yyy iy ii 77777@X80ee0X777777777",
"77777q777XXXXXXXXXXXXXX                   XXXXXXXXXXXXX777777777",
"777777777X0ee08X@777777  O#####=99999=##  77777@X80ee0X777777777",
"777777777Xeeee8X77777777 ####$9 rrrrr 9$ 7777777X8eeeeX777777777",
"777777777Xueee8X77777777 ##$&&rrr&&&&rr& 7777777X8eeeuX777777777",
"XXXXXXXXXXueee8X@7777777 O#&&&&&&&  &&&& 777777@X8eeeuXXXXXXXXXX",
"@7777qqqqXeeee8XXXXXXXXX  #$#&&&-&---&&& XXXXXXXX8eeeeX7777777@X",
"777777777Xu         XXXX   ##&&&&&&&&&&& 777777@X8eeeuX77777777X",
"777777777X iyiiiyiy6 @@ 9= O $#&&&&&&&&$ 7777777X8eeeeX@@@@77XXX",
"777777777X y66666663 @ rr9   ##&$#&&$#$#  777777X8eeeeXqqq7777,X",
"777777777X y6y666y63 @ rr9=  O ###### ## r 7777@X8eeeeX77777777X",
"777777777X y63666363 X r  ==   O# O#O O  9 X  XXX80ee0X77777777X",
"@77777777X y66666663                        yi XXXXXXXX7777777@X",
"XXXXXXXXXX y66666663   >>666yyyiyiiiyy666>  6y XX80ee0XXXXXXXXXX",
"qqq777777X y66666663                        >6 XX8eeeeXqqqq77777",
"777777777X y66666663 7777               @@@@  +XX8eeeuX777777777",
"7777777@@X y6y666y63 XXXX .<<<<11<1<<<. XXXXXXXXX8eeeuX777777777",
"777777q7qX y63666363 7777 <.         .< 77777777X8eeeeX777777777",
"777777777X 63333333> 7777 . 7@XX:XX@7 . 7777@XXXX8eeeuX777777777",
"777777777Xe         77777  7774X:X477  77777X252X8eeeeX777777777",
"777777777Xeeee8X:2:X77777777777X2X7777777777X:2:X8eeeeX777777777",
"XXXXXXXXXXeeee8XXXX@7777777777@X2X7777777777@XXXX8eeeeXXXXXXXXXX",
"@777q7qqwX0ee08XXXXXXXXXXXXXXXXX2XXXXXXXXXXXXXXXX80ee0X7777777@X",
"777777777XXXXXXX+@@@@@@@@@@@@+XX:X@777777777777@XXXXXXX77777777X",
"777777777X0ee08X@@@@@@@@@@@@@@XX2X77777777777777X80ee0X77777777X",
"777777777Xeeee8X+@@@@@@@@@@@@+XX:X77777777777777X8eeeeX7777777,X",
"777777777Xueee8XXXXXXXXXXXXXXXXX2X@777777777777@X8eeeuX@7@7XXXXX",
"777777777Xueee8XXXXXXXXXXXXXXXXX:XXXXXXXXXXXXXXXX8eeeuX7q7qq777X",
"@77777777Xeeee8X@7777777777777@X:XXXXXXXXXXXXXXXX8eeeeX7777777@X",
"XXXXXXXXXX0ee08X777777777777777X:XX@@@@@@@@@@@@XX80ee0XXXXXXXXXX",
"777777777X8888%X@7777777777777@X:XX+@@@@@@@@@@+XX%8888Xqqwwwqq77",
"777777777XXXXXXXXXXXXXXXXXXXXXXXXXXXXXXXXXXXXXXXXXXXXXX777777777",
"7777@@@77XXXXXXXXXXXXXXXXXXXXXXXXXXXXXXXXXXXXXXXXXXXXXX777777777",
"77777q777qq7q7,X777777777777777777777q777qq7q7,X7777777777777777",
"777777777777777X7777777777777777777777777777777X7777777777777777",
"777777777777777X7777777777777777777777777777777X7777777777777777",
"77777777777777@X@77777777777777777777777777777@X@777777777777777"
};
