/* XPM */
static char *e3aa79fe2124411282df2da753e86fabLPw89ubqQMdBcYOB[] = {
/* columns rows colors chars-per-pixel */
"64 64 34 1 ",
"  c None",
". c #553A3A",
"X c #402E30",
"o c #82604F",
"O c #715148",
"+ c #634440",
"@ c #1C1C1F",
"# c #28282B",
"$ c #393940",
"% c #2C2C30",
"& c #553A3A",
"* c #402E30",
"= c #82604F",
"- c #715148",
"; c #634440",
": c #DEA48A",
"> c #BA8A79",
", c #4B555E",
"< c #785A53",
"1 c #753030",
"2 c #8C3430",
"3 c #783A3D",
"4 c #A14343",
"5 c #B35249",
"6 c #8A3E3E",
"7 c #323942",
"8 c #4B6275",
"9 c #1C1C1F",
"0 c #393940",
"q c #2C2C30",
"w c white",
"a c black",
"s c #495900",
"d c #8A8A00",
/* pixels */
"dddddsdddddddddddddddsddddddddddddddsdddddddddddddddsddddddddddd",
"dddddssddssdddddddddssddddddddddddddssddssdddddddddssddddddddddd",
"dddddssdsdsdddddsdsddsdsddddddddddddsdsdsdddddsdsddsdssddddddddd",
"dddddssdddddsddddsdddsddsddsddddddddsdddddsddddsdddsddsddssddddd",
"ddddssadddddssdddssdssdddasddddddddsadddddssdddssdssdddassdddddd",
"ssssssaassssssaasssssaaasssssaaasssssaaasssssaaassssssaassssssaa",
"ssdddddddddddddsdddddddddddddddsdddddddddddddssddddddddddddddddd",
"ddddddssdssdsddddsdddddddsdddddsddddddsdsdsddddsdddddddssdddddss",
"dddssdssddssdddddssddssdssdsdsdsdddsdsddsdddddssddssdssdssdssdss",
"dddsssssdddddddddssssdssssddssssdddssssdddddddddssssdssssddsssss",
"dddssssssddddddddddaasssssasssssdddsssssddddddddddasssssaassssss",
"ddssdsdddddddddddddddddsdddddddsddsdsdddddddddddddddddsdddddddss",
"dddsdsddddddsddddsddddsdddddddddddsdsddddddsddddsddddsdddddddddd",
"dddssddddddssdddddssdssddssdssddssdddsddddddsdddddsdsddssdssddss",
"ssddddssdddddssddsdsdsdsadsddddsddddsdddddsddsdsdssdssadssddddss",
"dddddsdddddddddddddddsddddddddddddddsdddddddddddddddsddddddddddd",
"dddddssddssdddddddddssddddddddddddddssddssdddddddddssddddddddddd",
"dddddssdsdsdddddsdsddsdsddddddddddddsdsdsdddddsdsddsdssddddddddd",
"dddddssdddddsddddsdddsddsddsddddddddsdddddsddddsdddsddsddssddddd",
"ddddssadddddssdddssdssdddasddddddddsadddddssdddssdssdddassdddddd",
"ssssssaassssssaasssssaaassss......XXsaaasssssaaassssssaassssssaa",
"ssdddddddddddddsdddddddddddd......XXdddddddddssddddddddddddddddd",
"ddddddssdssdsddddsdddddd....ooOOOO++XXXXsdsddddsdddddddssdddddss",
"dddssdssddssdddddssddssd....ooOOOO++XXXXsdddddssddssdssdssdssdss",
"dddsssssdddddddddssssdssssdd&&&&&&**sssdddddddddssssdssssddsssss",
"dddssssssddddddddddaasssssas&&&&&&**ssssddddddddddasssssaassssss",
"ddssdsddddddddddddddddds&&&&==----;;****ddddddddddddddsdddddddss",
"dddsdsddddddsddddsddddsd&&&&==----;;****dddsddddsddddsdddddddddd",
"dddssddddddssdddddss  &&==&&&&&&&&;;;;;;**  sdddddsdsddssdssddss",
"ssddddssdddddssddsds  &&==&&&&&&&&;;;;;;**  dsdsdssdssadssddddss",
"dddddsdddddddddddddd&&====--&&&&------;;;;**ddddddddsddddddddddd",
"dddddssddssddddddddd&&====--&&&&------;;;;**dddddddssddddddddddd",
"dddddssdsdsdddddsdsd&&==----------;;----;;**ddsdsddsdssddddddddd",
"dddddssdddddsddddsdd&&==----------;;----;;**dddsdddsddsddssddddd",
"ddddssadddddssddds&&==--;;----;;----;;--;;**dddssdssdddassdddddd",
"ssssssaassssssaass&&==--;;----;;----;;--;;**saaassssssaassssssaa",
"ssdddddddddddddsdd&&====&&==--&&==--&&;;;;**dssddddddddddddddddd",
"ddddddssdssdsdddds&&====&&==--&&==--&&;;;;**dddsdddddddssdddddss",
"dddssdssddssddddds  &&&&&&&&&&::&&&&&&;;;;&&**ssddssdssdssdssdss",
"dddsssssddddddddds  &&&&&&&&&&::&&&&&&;;;;&&**ddssssdssssddsssss",
"dddssssssddddddddd**&&>>,,::::::,,::&&--&&--**ddddasssssaassssss",
"ddssdsdddddddddddd**&&>>,,::::::,,::&&--&&--**ddddddddsdddddddss",
"dddsdsddddddsdddds**&&<<,,::::::,,::::&&;;&&**ddsddddsdddddddddd",
"dddssddddddssddddd**&&<<,,::::::,,::::&&;;&&**ddddsdsddssdssddss",
"ssddddssdddddssdds1122<<::::::::::::::<<2211  dsdssdssadssddddss",
"dddddsdddddddddddd1122<<::::::::::::::<<2211  ddddddsddddddddddd",
"dddddssddssddddd**--;;**<<<<>>>>>><<<<**;;--**dddddssddddddddddd",
"dddddssdsdsddddd**--;;**<<<<>>>>>><<<<**;;--**sdsddsdssddddddddd",
"dddddssdddddsddd******334455555555555533******dsdddsddsddssddddd",
"ddddssadddddssdd******334455555555555533******dssdssdddassdddddd",
"ssssssaassssssaa    3344445555555555555533    aassssssaassssssaa",
"ssddddddddddddds    3344445555555555555533    sddddddddddddddddd",
"ddddddssdssdsddd  <<>>>>335555555566555533    dsdddddddssdddddss",
"dddssdssddssdddd  <<>>>>335555555566555533    ssddssdssdssdssdss",
"dddsssssdddddddd  <<>>>>3355555555<<::::<<    ddssssdssssddsssss",
"dddssssssddddddd  <<>>>>3355555555<<::::<<    ddddasssssaassssss",
"ddssdsdddddddddd    <<<<3333444444<<::::<<    ddddddddsdddddddss",
"dddsdsddddddsddd    <<<<3333444444<<::::<<    ddsddddsdddddddddd",
"dddssddddddssddd            77778888<<<<      ddddsdsddssdssddss",
"ssddddssdddddssd            77778888<<<<      dsdssdssadssddddss",
"sssssaasssssasss              9900qq99        ssssaasssssaasssss",
"sssssaasssssasss              9900qq99        ssssaasssssaasssss",
"sssssaasssssasss        @@##@@@@$$%%@@        ssssaasssssaasssss",
"sssssaasssssasss        @@##@@@@$$%%@@        ssssaasssssaasssss"
};
