/* XPM */
static char *c2f05858ad004561da6227c6ea50095fqwfgNP3ELPIkZmIf[] = {
/* columns rows colors chars-per-pixel */
"64 64 16 1 ",
"  c #3F3851",
". c #25667E",
"X c #6E5967",
"o c #926475",
"O c #AD707B",
"+ c #B77F83",
"@ c #298A91",
"# c #37AB9C",
"$ c #48C38A",
"% c #8CA9B5",
"& c #C39490",
"* c #D1B1A5",
"= c #91EA9C",
"- c #DCCABE",
"; c #B2D3CF",
": c #F0F7F4",
/* pixels */
"XXXXXXXXXXXXXXXXXXXXXXXXXXXXXXXXXXXXXXXXXXXXXXXXXXXXXXXXXXXXXXXX",
"O&&&&*****&&*&&&&&&&&&&&&&&&&&OXO&&&&*****&&*&&&&&&&&&&&&&&&&&OX",
"&&&&&&&&&&&&&&&&&&&&&&&&&&&&&&&X&&&&&&&&&&&&&&&&&&&&&&&&&&&&&&&X",
"&&&&&&&&&&&&&&&&&&&&O&OOOOO&&XXX&&&&&&&&&&&&&&&&&&&&O&OOOOO&&XXX",
"&&&&&&&&&&&&&&&&&&&&&*&***&&&&+X&&&&&&&&&&&&&&&&&&&&&*&***&&&&+X",
"&&&&&&&&&&&&&&&&&&&&&&&&&&&&&&&X&&&&&&&&&&&&&&&&&&&&&&&&&&&&&&&X",
"&&&&&&&&&&&&&&&&&&&&&&&&&&&&&&&X&&&&&&&&&&&&&&&&&&&&&&&&&&&&&&&X",
"O&&&&&&&&&&&&&&&&&&&&&&&&&&&&&OXO&&&&&&&&&&&&&&&&&&&&&&&&&&&&&OX",
"XXXXXXXXXXXXXXXXXXXXXXXXXXXXXXXXXXXXXXXXXXXXXXXXXXXXXXXXXXXXXXXX",
"***&&&&&&&&&&&OXO&&&*&*****&&&&&***&&&&&&&&&&&OXO&&&*&*****&&&&&",
"&&&&&&&&&&&&&&&X&&&&&&&&&&&&&&&&&&&&&&&&&&&&&&&X&&&&&&&&&&&&&&&&",
"&&&&&&&OO&O&&XXX&&&&&&&&&&&&&&&&&&&&&&&OO&O&&XXX&&&&&&&&&&&&&&&&",
"&&&&&&*&**&&&&+X&&&&&&&&&&&&&&&&&&&&&&*&**&&&&+X&&&&&&&&&&&&&&&&",
"&&&&&&&&&&&&&&&X&&&&&&&&&&&&&&&&&&&&&&&&&&&&&&&X&&&&&&&&&&&&&&&&",
"&&&&&&&&&&&&&&&X&&&&&&&&&&&&&&&&&&&&&&&&&&&&&&&X&&&&&&&&&&&&&&&&",
"&&&&&&&&&&&&&&OXO&&&&&&&&&&&&&&&&&&&&&&&&&&&&&OXO&&&&&&&&&&&&&&&",
"XXXXXXXXXXXXXXXXXXXXXXXXXXXXXXXXXXXXXXXXXXXXXXXXXXXXXXXXXXXXXXXX",
"O&&&*&**---*&**&&&&&&&&&&&&&&&OXO&&&*&**---*&**&&&&&&&&&&&&&&&OX",
"&&&&&&&&&&&&&&&&&&&&&&&&&&&&&&&X&&&&&&&&&&&&&&&&&&&&&&&&&&&&&&&X",
"&&&&&&&&&&&&&&&&&&&&&&&&&&&&&&&X&&&&&&&&&&&&&&&&&&&&&&&&&&&&&&&X",
"&&&&&&&&&&&&&&&&&&&&&&&&&&&&&&+X&&&&&&&&&&&&&&&&&&&&&&&&&&&&&&+X",
"&&&&&&&&&&&&&&&&&&&&&&OO&O&XXXXX&&&&&&&&&&&&&&&&&&&&&&OO&O&XXXXX",
"&&&&&&&&&&&&&&&&&&&&&&&&*&**&&&X&&&&&&&&&&&&&&&&&&&&&&&&*&**&&&X",
"O&&&&&&&&&&&&&&&&&&&&&&&&&&&&&OXO&&&&&&&&&&&&&&&&&&&&&&&&&&&&&OX",
"XXXXXXXXXXXXXXXXXXXXXXXXXXXXXXXXXXXXXXXXXXXXXXXXXXXXXXXXXXXXXXXX",
"&&&&&&&&&&&&&&OXO&&&*&***---**&&&&&&&&&&&&&&&&OXO&&&*&***---**&&",
"&&&&&&&&&&&&&&&X&&&&&&&&&&&&&&&&&&&&&&&&&&&&&&&X&&&&&&&&&&&&&&&&",
"&&&&OOO&&O&&XXXX&&&&&&+OOOOOOOOOOOOOOOOOO+&&&&&X&&&&&&&&&&&&&&&&",
"&&&&&*&&&**&*&+X&&&&&+OOOOOOOOOOOOOOOOOOOO+&&&&X&&&&&&&&&&&&&&&&",
"&&&&&&&&&&&&&&&X&&&&&OOOOOOOOOOOOOOOOOOOOOO&&&&X&&&&&&&&&&&&&&&&",
"&&&&&&&&&&&&&&&X&&&&&OOOOOOOoXXXXXXoOOOOOOO&&&&X&&&&&&&&&&&&&&&&",
"&&&&&&&&&&&&&&OXO&&&+OOOOOOoXXXXXXXXoOOOOOO+&&OXO&&&&&&&&&&&&&&&",
"XXXXXXXXXXXXXXXXXXXXXXXXXXXXXXXXXXXXXXXXXXXXXXXXXXXXXXXXXXXXXXXX",
"O&&&&*****&&*&&&&&&&+OOOOoXXXXXXXXXXXXoOOOO+&&&&&&&&&&&&&&&&&&OX",
"&&&&&&&&&&&&&&&&&&&&&OOOO   XXXXXXXX   OOOO&&&&&&&&&&&&&&&&&&&&X",
"&&&&&&&&&&&&&&&&&&&&&OOO ==$ XXXXXX ==$ OOO&&&&&&&&&O&OOOOO&&XXX",
"&&&&&&&&&&&&&&&&&&&&&OOO $#          ## OOO&&&&&&&&&&*&***&&&&+X",
"&&&&&&&&&&&&&&&&&&&&&OOO   #$$==$=$$#   OOO&&&&&&&&&&&&&&&&&&&&X",
"&&&&&&&&&&&&&&&&&&&&&OOOO #$$$$$$$$$$@ OOOO&&&&&&&&&&&&&&&&&&&&X",
"O&&&&&&&&&&&&&&&&&&&+OOO  $$ #$ #$$ $@ OOOO+&&&&&&&&&&&&&&&&&&OX",
"XXXXXXXXXXXXXXXXXXXXXXX : ##    ## : @ XXXXXXXXXXXXXXXXXXXXXXXXX",
"***&&&&&&&&&&&OXO&&&&+O ::  ==$=  :: @ OOO+&&&OXO&&&*&*****&&&&&",
"&&&&&&&&&&&&&&&X&&&&&&+ ;:%  $$  %:; @ OO+&&&&&X&&&&&&&&&&&&&&&&",
"&&&&&&&OO&O&&XXX&&&&&&&& %  #$$#  % $$$ &&&&&&&X&&&&&&&&&&&&&&&&",
"&&&&&&*&**&&&&+X&&&&&&& $          #$#$$ &O&XXXX&&&&&&&&&&&&&&&&",
"&&&&&&&&&&&&&&&X&&&&&&& $ .@@@@@@@#$$ ## *&&&&+X&&&&&&&&&&&&&&&&",
"&&&&&&&&&&&&&&&X&&&&&&&&  @@#$$$$$$$$@  &&&&&&&X&&&&&&&&&&&&&&&&",
"&&&&&&&&&&&&&&OXO&&&&&&&& @$$$=$==$$#. &&&&&&&OXO&&&&&&&&&&&&&&&",
"XXXXXXXXXXXXXXXXXXXXXXXXXX $#      @@ XXXXXXXXXXXXXXXXXXXXXXXXXX",
"O&&&*&**---*&**&&&&&&&&&&& # &OXO&& . **---*&**&&&&&&&&&&&&&&&OX",
"&&&&&&&&&&&&&&&&&&&&&&&&&&&  &&X&&&&  &&&&&&&&&&&&&&&&&&&&&&&&&X",
"&&&&&&&&&&&&&&&&&&&&&&&&&&&&&&&X&&&&&&&&&&&&&&&&&&&&&&&&&&&&&&&X",
"&&&&&&&&&&&&&&&&&&&&&&&&&&&&&&+X&&&&&&&&&&&&&&&&&&&&&&&&&&&&&&+X",
"&&&&&&&&&&&&&&&&&&&&&&OO&O&XXXXX&&&&&&&&&&&&&&&&&&&&&&OO&O&XXXXX",
"&&&&&&&&&&&&&&&&&&&&&&&&*&**&&&X&&&&&&&&&&&&&&&&&&&&&&&&*&**&&&X",
"O&&&&&&&&&&&&&&&&&&&&&&&&&&&&&OXO&&&&&&&&&&&&&&&&&&&&&&&&&&&&&OX",
"XXXXXXXXXXXXXXXXXXXXXXXXXXXXXXXXXXXXXXXXXXXXXXXXXXXXXXXXXXXXXXXX",
"&&&&&&&&&&&&&&OXO&&&*&***---**&&&&&&&&&&&&&&&&OXO&&&*&***---**&&",
"&&&&&&&&&&&&&&&X&&&&&&&&&&&&&&&&&&&&&&&&&&&&&&&X&&&&&&&&&&&&&&&&",
"&&&&OOO&&O&&XXXX&&&&&&&&&&&&&&&&&&&&OOO&&O&&XXXX&&&&&&&&&&&&&&&&",
"&&&&&*&&&**&*&+X&&&&&&&&&&&&&&&&&&&&&*&&&**&*&+X&&&&&&&&&&&&&&&&",
"&&&&&&&&&&&&&&&X&&&&&&&&&&&&&&&&&&&&&&&&&&&&&&&X&&&&&&&&&&&&&&&&",
"&&&&&&&&&&&&&&&X&&&&&&&&&&&&&&&&&&&&&&&&&&&&&&&X&&&&&&&&&&&&&&&&",
"&&&&&&&&&&&&&&OXO&&&&&&&&&&&&&&&&&&&&&&&&&&&&&OXO&&&&&&&&&&&&&&&"
};
