/* XPM */
static char *_c6446d93fa94b6ae73b70ba648fbd34IHQoxh4w3JMGnWid[] = {
/* columns rows colors chars-per-pixel */
"64 64 132 2 ",
"   c #3A3751",
".  c #3F3851",
"X  c #473A52",
"o  c #4C3851",
"O  c #513753",
"+  c #593752",
"@  c #543952",
"#  c #5D3853",
"$  c #6F3757",
"%  c #643A52",
"&  c #6B3C50",
"*  c #703E51",
"=  c #7D3A54",
"-  c #524755",
";  c #594254",
":  c #584B57",
">  c #6F4454",
",  c #6E4855",
"<  c #654E58",
"1  c #734252",
"2  c #7F4654",
"3  c #774C57",
"4  c #7A4C56",
"5  c #7E5258",
"6  c #7E5A5D",
"7  c #883E4F",
"8  c #843A57",
"9  c #893957",
"0  c #803758",
"q  c #813858",
"w  c #943E52",
"e  c #9C3C56",
"r  c #953959",
"t  c #A63F53",
"y  c #9A414F",
"u  c #834E57",
"i  c #824F58",
"p  c #9E4550",
"a  c #954B52",
"s  c #855259",
"d  c #875D5D",
"f  c #895E5E",
"g  c #AE444E",
"h  c #A74053",
"j  c #A94251",
"k  c #A44B52",
"l  c #B44C51",
"z  c #AC5756",
"x  c #A05E5B",
"c  c #AE5F5B",
"v  c #B65153",
"b  c #BA5755",
"n  c #BE5955",
"m  c #BD5A59",
"M  c #B2625C",
"N  c #B5685F",
"B  c #8C6762",
"V  c #8D6862",
"C  c #917267",
"Z  c #927769",
"A  c #937B6D",
"S  c #937E72",
"D  c #B06661",
"F  c #B96A61",
"G  c #BD7365",
"H  c #C15D57",
"J  c #C5645B",
"K  c #C76B5F",
"L  c #CA6C5F",
"P  c #C46A62",
"I  c #CB6F60",
"U  c #D96B60",
"Y  c #C77166",
"T  c #C97266",
"R  c #CA7A6A",
"E  c #E27E6C",
"W  c #948474",
"Q  c #948877",
"!  c #94897B",
"~  c #B9806D",
"^  c #DB876F",
"/  c #CB8770",
"(  c #CF8972",
")  c #D08972",
"_  c #D4997B",
"`  c #E3816E",
"'  c #E48671",
"]  c #E68C74",
"[  c #E59276",
"{  c #E89377",
"}  c #E99679",
"|  c #EA997A",
" . c #EAA27F",
".. c #948F83",
"X. c #DAAA84",
"o. c #DDB289",
"O. c #DEBA91",
"+. c #DEBF9A",
"@. c #EEA481",
"#. c #F1AE86",
"$. c #F3B58A",
"%. c #F5BA8E",
"&. c #E0C79D",
"*. c #E0C89E",
"=. c #F9C393",
"-. c #FBCA97",
";. c #FCCC99",
":. c #FDD29E",
">. c #E1CFA4",
",. c #E1D2AC",
"<. c #E1D2AC",
"1. c #FDD4A1",
"2. c #FDD6A4",
"3. c #FCD5A6",
"4. c #FDD6A7",
"5. c #FDD5A3",
"6. c #FDD8A9",
"7. c #FDDCA9",
"8. c #FDDDAA",
"9. c #FDDBA9",
"0. c #E0D2B3",
"q. c #E1D9B8",
"w. c #E1D9B8",
"e. c #FEE2AF",
"r. c #FEE2AF",
"t. c #FEE2B0",
"y. c #FEE6B6",
"u. c #FEE6B7",
"i. c #FEE5B4",
"p. c #FDE6BD",
"a. c #FEECC2",
"s. c #FEECC2",
/* pixels */
": - X . . . . . . . . . . . . . . . . . . . . . . . . . . . . . . . . . . . . . . . . . . . . . . . . . . . . . . . . . . X - : ",
"- < 6 B C A W ! ....! Q Q W A C B 6 ; ; 3 s f B C A W Q Q ! ....! Q Q W A Z Z C V f s 3 ; ; 6 B C A W Q Q ! ....! W A C B 6 < - ",
"X 6 ~ _ X.O.*.,.q.q.,.>.>.*.O.X._ ~ 6 3 D R ) _ X.O.*.>.>.,.q.q.,.>.>.&.O.o.o.X._ ) R D 3 6 ~ _ X.O.*.>.>.,.q.q.,.*.O.X._ ~ 6 X ",
". V _ $.=.:.8.y.a.a.y.t.e.8.:.=.$._ V s Y ] @.$.=.:.8.e.t.y.a.a.y.t.e.8.:.-.-.=.$.@.] Y s V _ $.=.:.8.e.t.y.a.a.y.8.:.=.$._ V . ",
". C X.=.-.;.:.2.6.6.2.1.1.:.;.-.=.X.C s Y { $.=.-.;.:.1.1.2.6.6.2.1.1.:.;.;.-.-.=.$.{ Y s C X.=.-.;.:.1.1.2.6.6.2.:.;.-.=.X.C . ",
". Z o.-.;.-.-.-.-.-.-.-.-.-.-.;.-.o.Z s Y { %.-.-.-.-.-.-.-.-.-.-.-.-.-.-.-.-.-.-.%.{ Y s Z o.-.;.-.-.-.-.-.-.-.-.-.-.;.-.o.Z . ",
". Z o.-.;.-.-.-.-.-.-.-.-.-.-.;.-.o.Z s Y { %.-.-.-.-.-.-.-.-.-.-.-.-.-.-.-.-.-.-.%.{ Y s Z o.-.;.-.-.-.-.-.-.-.-.-.-.;.-.o.Z . ",
". Z o.-.;.-.-.-.-.-.-.-.-.-.-.;.-.o.Z s Y { $.=.-.-.-.-.-.-.-.-.-.-.-.-.-.-.-.-.=.$.{ Y s Z o.-.;.-.-.-.-.-.-.-.-.-.-.;.-.o.Z . ",
". Z o.-.;.-.-.-.-.-.-.-.-.-.-.;.-.o.Z s Y ] @.$.=.-.-.-.-.-.-.-.-.-.-.-.-.-.-.=.$.@.] Y s Z o.-.;.-.-.-.-.-.-.-.-.-.-.;.-.o.Z . ",
". C X.=.-.-.-.-.-.-.-.-.-.-.-.-.=.X.C s Y ' { @.%.=.-.-.-.-.-.-.;.;.-.-.-.-.=.%.@.{ ' Y s C X.=.-.-.-.-.-.-.-.-.-.-.-.-.=.X.C . ",
". V _ $.=.-.-.-.-.-.-.-.-.-.-.=.$._ V s Y ` ' { @.$.=.-.-.-.-.-.-.-.-.-.-.=.$.@.{ ' ` Y s V _ $.=.-.-.-.-.-.-.-.-.-.-.=.$._ V . ",
". f ( @.%.=.-.-.-.-.-.-.-.-.=.%.@.( f s Y E ` ' { @.$.%.%.%.%.%.%.%.%.%.%.$.@.{ ' ` E Y s f ( @.%.=.-.-.;.;.;.-.-.-.=.%.@.( f . ",
". s R { @.$.=.-.-.-.-.-.-.=.$.@.{ R s s Y E E ` ' ] { { { { { { { { { { { { ] ' ` E E Y s s R { @.$.=.-.-.-.-.-.-.=.$.@.{ R s . ",
". s T ' { @.$.%.%.%.%.%.%.$.@.{ ' Y s u P E E E ` E E ` E E E E E E E E E E E ` E E E P u s Y ' { @.$.%.%.%.%.%.%.$.@.{ ' T s . ",
". s T ` ' ] { { { { { { | { ] ' ` Y s 2 m U E E E E E E E E E E E E E E E E E E E E U m 2 s Y ` ' ] { { { { { { { { ] ' ` T s . ",
". u P E E E ` E E E E E ` ` E E E P u * k m P T T T T T T T T T T T T T T T T T T P m k * u P E E E ` E E E E E E ` E E E P u . ",
". 2 m U E E E E E E E E E E E E U m 2 @ & 2 u s s s s s s s s s s s s s s s s s s u 2 & @ 2 m U E E E E E E E E E E E E U m 2 . ",
". * k m P Y Y Y Y Y Y Y Y Y Y P m k * . . . . . . . . . . . . . . . . . . . . . . . .   . * k m P Y Y Y Y Y Y Y Y Y Y P m k * . ",
". @ * 2 u s s s s s s s s s s u 2 * @ .                                                 . @ * 2 u s s s s s s s s s s u 2 * @ . ",
". ; 3 s s s s s s s s s s u 2 * @ . . . . X @ # % % & & % % # O X X O # % % & & % % # @ X . . @ * 2 u s s s s s s s s i 4 , @ . ",
". 3 D Y Y Y Y Y Y Y Y Y Y P m k & .   . . @ $ 0 9 w w w w 9 0 $ @ @ $ 0 9 w w w w 9 0 $ @     & k m P Y Y Y Y Y Y Y Y P F x , . ",
". s R ] { { { { ] ' ` E E E U m 2 .   . . # q r t t j j t e r q # # q r e t j j t e r q #   . 2 m U E E E ` ' ] { | { [ ^ G 5 . ",
". f ) @.$.%.%.$.@.{ ' ` E E E P u .   . . % 9 e h j g g j h e 9 % % 9 e h j g g j h e 9 %   . u P E E E ` ' { @.$.%.%.$. ./ d . ",
". V _ $.=.-.-.=.$.@.{ ' ` E E T s .   . . # = w w y y y y w 9 = + # = w w y y y y w w = #   . s T E E ` ' { @.$.=.-.-.=.$._ V . ",
". C X.=.-.-.-.-.=.%.@.{ ' ` E T s .   . . o # % & & & & & & % # o o # % & & & & & & % # o   . s T E ` ' { @.%.=.-.-.-.-.=.X.C . ",
". Z o.-.-.-.-.-.-.=.#.| ' E E T s .   . . . . X O # % & 1 1 4 4 4 4 1 1 & % # O X . . . .   . s T E E ' | #.=.-.-.-.-.-.-.o.Z . ",
". Z o.-.;.-.-.-.-.=.#.| ' E E T s .   . . . . O $ 8 w p k z M N N M z k p w 8 $ O . . . .   . s T E E ' | #.=.-.-.-.-.;.-.o.Z . ",
". S +.2.;.-.-.-.-.=.$.@.] E E T s .   . . . . # 8 e j l n J I T T L J n l j e 8 # . . . .   . s T E E ] @.$.=.-.-.-.-.;.2.+.S . ",
". ..0.p.2.-.-.-.-.-.=.$.{ E E T s .   . . . . % w j g v J I T T T T I J v g j w % . . . .   . s T E E { $.=.-.-.-.-.-.2.p.0.... ",
". ..q.a.6.-.-.-.-.;.-.%.{ E E T s .   . . . . % w j g v J I T T T T I J v g j w % . . . .   . s T E E { %.-.-.-.-.-.-.6.a.q.... ",
". ! ,.y.2.-.-.-.-.-.-.%.{ E E T s .   . . . . # 8 e j l n J I T T I J n l j e 8 # . . . .   . s T E E { %.-.-.-.-.-.-.2.y.,.! . ",
". W &.8.:.-.-.-.-.-.-.%.{ E E T s .   . . . . O $ 8 w p k z M N N M z k p w 8 $ O . . . .   . s T E E { %.-.-.-.-.-.-.:.8.&.W . ",
". A O.:.;.-.-.-.-.-.-.%.{ E E T s .   . . . . X O # % & 1 1 4 4 4 4 1 1 & % # O X . . . .   . s T E E { %.-.-.-.-.-.-.;.:.O.A . ",
". A O.:.;.-.-.-.-.-.-.%.{ E E T s .   X O # % & & & & & 1 1 & % o O & 1 & & & & & % # O X   . s T E E | %.-.-.-.-.-.-.;.:.O.A . ",
". W &.8.:.-.-.-.-.-.-.%.{ E E T s .   O $ 8 w y y y y p k k p 7 # & a k p y y y y w 8 $ O   . s T E E { %.-.-.-.-.-.-.:.8.&.W . ",
". W &.8.:.-.-.-.-.-.=.$.{ E E T s .   # 8 e j g g g g l n H b k > 1 z n l g g g g j e 8 #   . s T E E { $.=.-.-.-.-.-.:.8.&.W . ",
". A O.:.;.-.-.-.-.=.$.@.] E E T s .   % w j g g g g g v J L K c 3 4 M J v g g g g g j w %   . s T E E ] @.$.=.-.-.-.-.;.:.O.A . ",
". Z o.-.;.-.-.-.-.=.#.| ' E E T s .   % w j g g g g g v J L K c 3 4 M J v g g g g g j w %   . s T E E ' | #.=.-.-.-.-.;.-.o.Z . ",
". Z o.-.-.-.-.-.-.=.#.| ' ` E T s .   # 8 e j g g g g l n H b k > 1 z n l g g g g j e 8 #   . s T E E ' | #.=.-.-.-.-.-.-.o.Z . ",
". C X.=.-.-.-.-.=.%.@.{ ' ` ` T s .   O $ 8 w y y y y p k k p 7 % & a k p y y y y w 8 $ O   . s T E ` ' { @.%.=.-.-.-.-.=.X.C . ",
". V _ $.=.-.-.=.$.@.{ ' ` E E T s .   X O # % & & & & & 1 1 & % o O & 1 & & & & & % # O X   . s T E E ` ' { @.$.=.-.-.=.$._ V . ",
". f ) @.$.%.%.$.@.{ ' ` E E E P u .   . . . . X @ % & & & & & & & & & & & & % @ X . . . .   . u P E E E ` ' { @.$.%.%.$. ./ d . ",
". s R ] { { { { ] ' ` E E E U m 2 .   . . . . O $ 8 w y y y y y y y y y y w 8 $ O . . . .   . 2 m U E E E ` ' ] { | { [ ^ G 5 . ",
". 3 D Y Y Y Y Y Y Y Y Y Y P m k & .   . . . . O $ 8 w y y y y y y y y y y w 8 $ O . . . .   . & k m P Y Y Y Y Y Y Y Y P F x , . ",
". ; 3 s s s s s s s s s s u 2 * @ . . . . . . X @ % & & & & & & & & & & & & % @ X . . . . . . @ * 2 u s s s s s s s s i 4 , @ . ",
". @ * 2 u s s s s s s s s s s u 2 * @ .                                                 . @ * 2 u s s s s s s s s s s u 2 * @ . ",
". * k m P Y Y Y Y Y Y Y Y Y Y P m k * . . . . . . . . . . . . . . . . . . . . . . . . . . * k m P Y Y Y Y Y Y Y Y Y Y P m k * . ",
". 2 m U E E E E E E E E E E E E U m 2 @ & 2 u s s s s s s s s s s s s s s s s s s u 2 & @ 2 m U E E E E E E E E E E E E U m 2 . ",
". u P E E E ` E E E E E E ` ` E E P u * k m P T T T T T T T T T T T T T T T T T T P m k * u P E E E ` E E E E E E ` E E E P u . ",
". s T ` ' ] { { { { { { { { ] ' ` Y s 2 m U E E E E E E E E E E E E E E E E E ` E E U m 2 s Y ` ' ] { { { { { { { { ] ' ` T s . ",
". s T ' { @.$.%.%.%.%.%.%.$.@.{ ' Y s u P E E E ` E E E E E E E E E E E E E ` ` E E E P u s Y ' { @.$.%.%.%.%.%.%.$.@.{ ' T s . ",
". s R { @.$.=.-.-.-.-.-.-.=.$.@.{ R s s Y E E ` ' ] { { { { { { { { { { { { ] ' ` E E Y s s R { @.$.=.-.-.-.-.-.-.=.$.@.{ R s . ",
". f ( @.%.=.-.-.-.-.-.-.-.-.=.%.@.( f s Y E ` ' { @.$.%.%.%.%.%.%.%.%.%.%.$.@.{ ' ` E Y s f ( @.%.=.-.-.;.;.;.;.-.-.=.%.@.( f . ",
". V _ $.=.-.-.-.-.-.-.-.-.-.-.=.$._ V s Y ` ' { @.$.=.-.-.-.-.-.-.-.-.-.-.=.$.@.{ ' ` Y s V _ $.=.-.-.-.-.-.-.-.-.-.-.=.$._ V . ",
". C X.=.-.-.-.-.-.-.-.-.-.-.-.-.=.X.C s Y ' { @.%.=.-.-.-.-.-.-.-.-.-.-.-.-.=.%.@.{ ' Y s C X.=.-.-.-.-.-.-.-.-.-.-.-.-.=.X.C . ",
". Z o.-.;.-.-.-.-.-.-.-.-.-.-.;.-.o.Z s Y ] @.$.=.-.-.-.-.-.-.-.-.-.-.-.-.-.-.=.$.@.] Y s Z o.-.;.-.-.-.-.-.-.-.-.-.-.;.-.o.Z . ",
". Z o.-.;.-.-.-.-.-.-.-.-.-.-.;.-.o.Z s Y { $.=.-.-.-.-.-.-.-.-.-.-.-.-.-.-.-.-.=.$.{ Y s Z o.-.;.-.-.-.-.-.-.-.-.-.-.;.-.o.Z . ",
". Z o.-.;.-.-.-.-.-.-.-.-.-.-.;.-.o.Z s Y { %.-.-.-.-.-.-.-.-.-.-.-.-.-.-.-.-.-.-.%.{ Y s Z o.-.;.-.-.-.-.-.-.-.-.-.-.;.-.o.Z . ",
". Z o.-.;.-.-.-.-.-.-.-.-.-.-.;.-.o.Z s Y { %.-.-.-.-.-.-.-.-.-.-.-.-.-.-.-.-.-.-.%.{ Y s Z o.-.;.-.-.-.-.-.-.-.-.-.-.;.-.o.Z . ",
". C X.=.-.;.:.2.6.6.2.1.1.:.;.-.=.X.C s Y { $.=.-.;.:.:.;.;.:.2.6.6.2.1.1.:.;.-.=.$.{ Y s C X.=.-.;.:.1.1.2.6.6.2.:.;.-.=.X.C . ",
". V _ $.=.:.8.y.a.a.y.t.e.8.:.=.$._ V s Y ] @.$.=.:.8.8.:.:.8.y.a.a.y.t.e.8.:.=.$.@.] Y s V _ $.=.:.8.e.t.y.a.a.y.8.:.=.$._ V . ",
"X 6 ~ _ X.O.*.,.q.q.,.>.>.*.O.X._ ~ 6 3 D R ) _ X.O.*.&.O.O.&.,.q.q.,.>.>.*.O.X._ ) R D 3 6 ~ _ X.O.*.>.>.,.q.q.,.*.O.X._ ~ 6 X ",
"- < 6 B C A W ! ....! Q Q W A C B 6 ; ; 3 s f B C A W W A A W ! ....! Q Q W A C B f s 3 ; ; 6 B C A W Q Q ! ....! W A C B 6 < - ",
": - X . . . . . . . . . . . . . . . . . . . . . . . . . . . . . . . . . . . . . . . . . . . . . . . . . . . . . . . . . . X - : "
};
