/* XPM */
static char *_9cff7697dcb4b4ff0b35a827365b6ee4BmmaYTrFPvz9Y2O[] = {
/* columns rows colors chars-per-pixel */
"64 64 27 1 ",
"  c #3F3851",
". c #25667E",
"X c #6E5967",
"o c #E44B3B",
"O c #B9355C",
"+ c #AD707B",
"@ c #DA4949",
"# c #E36254",
"$ c #F07860",
"% c #EF895A",
"& c #CD8674",
"* c #F69972",
"= c #F6C27D",
"- c #5F7D93",
"; c #B77F83",
": c #298A91",
"> c #37AB9C",
", c #768EA1",
"< c #8CA9B5",
"1 c #C39490",
"2 c #DEB19C",
"3 c #D1B1A5",
"4 c #DCCABE",
"5 c #ECD4BE",
"6 c #FFEFA9",
"7 c #A5C2C7",
"8 c #F2F7F6",
/* pixels */
"XXXXXXXXXXXXXXXXXXXXXXXXXXXXXXXXXXXXXXXXXXXXXXXXXXXXXXXXXXXXXXXX",
"+11113333311311111111111111111+X+11113333311311111111111111111+X",
"1111111111111111111111111111111X1111111111111111111111111111111X",
"11111111111111111111+1+++++11XXX11111111111111111111+1+++++11XXX",
"111111111111111111111313331111;X111111111111111111111313331111;X",
"1111111111111111111111111111111X1111111111111111111111111111111X",
"1111111111111111111111111111111X1111111111111111111111111111111X",
"+11111111111111111111111111111+X+11111111111111111111111111111+X",
"XXXXXXXXXXXXXXXXXXXXXXXXXXXXXXXXXXXXXXXXXXXXXXXXXXXXXXXXXXXXXXXX",
"33311111111111+X+11131333331111133311111111111+X+111313333311111",
"111111111111111X1111111111111111111111111111111X1111111111111111",
"1111111++1+11XXX11111111111111111111111++1+11XXX1111111111111111",
"11111131331111;X111111111111111111111131331111;X1111111111111111",
"111111111111111X1111111111111111111111111111111X1111111111111111",
"111111111111111X1111111111111111111111111111111X1111111111111111",
"11111111111111+X+11111111111111111111111111111+X+111111111111111",
"XXXXXXXXXXXXXXXXXXXXXXXX     XX       X   XXXXXXXXXXXXXXXXXXXXXX",
"+1113133444313311111111 o%==%  %===6=6 66= 3133111111111111111+X",
"11111111111111111111111 %%===  ==    6 666 11111111111111111111X",
"11111111111111111111111 %%===  ==    6 666 11111111111111111111X",
"11111111111111111111111 %%===%===%% %6=666 1111111111111111111;X",
"1111111111111111111111+ o%===%=======6=66= 11111111111++1+1XXXXX",
"11111111111111111111111                    11111111111113133111X",
"+111111111111111111111 -, --,,7 7777 87  88 111111111111111111+X",
"XXXXXXXXXXXXXXXXXXXXXX                      XXXXXXXXXXXXXXXXXXXX",
"11111111111111+X+11131  O@@@@@@&222222&@@@  11+X+111313334443311",
"111111111111111X111111  O@@@@@@&222222&@@@  111X1111111111111111",
"1111+++11+11XXXX111111; @@@@@#2 555555 22# 1111X1111111111111111",
"11111311133131;X11111;+ @@##$$555$$$$$555$ 1111X1111111111111111",
"111111111111111X11111++ O@$$$$$$$$$  $$$$$ 1111X1111111111111111",
"111111111111111X11111++  @##@$$$*$$***$$$$ 1111X1111111111111111",
"11111111          11;++   @@@$$$$$$$$$$$$$ ;11+X+111111111111111",
"XXXXXXXX          XXXXX   @@@$$$$$$$$$$$$$ XXXXXXXXXXXXXXXXXXXXX",
"+111133 878888787< 1;+ 2& OO #@$$$$$$$$$$# ;111111111111111111+X",
"1111111 7<<<<<<<<, 11 552    @@$#@@$$#@##@  1111111111111111111X",
"1111111 7<7<<<<7<, 11 552&   O @@@@@@@ @@@ 5 1111111+1+++++11XXX",
"1111111 7<,<<<<,<, 11 5  &&&   O@  O@O OO  2 1   1111313331111;X",
"1111111 7<<<<<<<<,                            778 1111111111111X",
"1111111 7<<<<<<<<,    --<<<<77787888877<<<<-  <<7 1111111111111X",
"+111111 7<<<<<<<<,    --<<<<77787888877<<<<-  <<7 111111111111+X",
"XXXXXXX 7<<<<<<<<,                            --< XXXXXXXXXXXXXX",
"3331111 7<<<<<<<<, 11;++                  ;111   111313333311111",
"1111111 7<7<<<<7<, 111;+ .:::::>>::>:::.. 11111X1111111111111111",
"1111111 7<,<<<<,<, 11111 :..          .:: 11111X1111111111111111",
"1111113 <,,,,,,,,- 11111 .  1111111111 .. +1XXXX1111111111111111",
"11111111          111111  111111111111   31111;X1111111111111111",
"11111111          111111  111111111111   111111X1111111111111111",
"11111111111111+X+11111111111111111111111111111+X+111111111111111",
"XXXXXXXXXXXXXXXXXXXXXXXXXXXXXXXXXXXXXXXXXXXXXXXXXXXXXXXXXXXXXXXX",
"+11131334443133111111111111111+X+11131334443133111111111111111+X",
"1111111111111111111111111111111X1111111111111111111111111111111X",
"1111111111111111111111111111111X1111111111111111111111111111111X",
"111111111111111111111111111111;X111111111111111111111111111111;X",
"1111111111111111111111++1+1XXXXX1111111111111111111111++1+1XXXXX",
"1111111111111111111111113133111X1111111111111111111111113133111X",
"+11111111111111111111111111111+X+11111111111111111111111111111+X",
"XXXXXXXXXXXXXXXXXXXXXXXXXXXXXXXXXXXXXXXXXXXXXXXXXXXXXXXXXXXXXXXX",
"11111111111111+X+11131333444331111111111111111+X+111313334443311",
"111111111111111X1111111111111111111111111111111X1111111111111111",
"1111+++11+11XXXX11111111111111111111+++11+11XXXX1111111111111111",
"11111311133131;X111111111111111111111311133131;X1111111111111111",
"111111111111111X1111111111111111111111111111111X1111111111111111",
"111111111111111X1111111111111111111111111111111X1111111111111111",
"11111111111111+X+11111111111111111111111111111+X+111111111111111"
};
