/* XPM */
static char *fa633c6c641a417189e6519b718d9511us9ueJby0YojKSLT[] = {
/* columns rows colors chars-per-pixel */
"64 64 21 1 ",
"  c None",
". c #3F3851",
"X c #584B57",
"o c #6E5967",
"O c #89365C",
"+ c #9E3B57",
"@ c #AE444E",
"# c #BF5753",
"$ c #926475",
"% c #AD707B",
"& c #D25654",
"* c #CD7363",
"= c #E27F6D",
"- c #EDA27F",
"; c #B77F83",
": c #C39490",
"> c #D1B1A5",
", c #FBCA97",
"< c #DCCABE",
"1 c #FFEAB7",
"2 c #FFFAD6",
/* pixels */
"XXXX............................................................",
"XXXX............................................................",
"XXXX............................................................",
"XXXX............................................................",
"....----,,,,1111222211111111,,,,----....====----,,,,,,,,11112222",
"....----,,,,1111222211111111,,,,----....====----,,,,,,,,11112222",
"....----,,,,1111222211111111,,,,----....====----,,,,,,,,11112222",
"....----,,,,1111222211111111,,,,----....====----,,,,,,,,11112222",
"....,,,,,,,,,,,,,,,,,,,,,,,,,,,,,,,,....====,,,,,,,,,,,,,,,,,,,,",
"....,,,,,,,,,,,,,,,,,,,,,,,,,,,,,,,,....====,,,,,,,,,,,,,,,,,,,,",
"....,,,,,,,,,,,,,,,,,,,,,,,,,,,,,,,,....====,,,,,,,,,,,,,,,,,,,,",
"....,,,,,,,,,,,,,,,,,,,,,,,,,,,,,,,,....====,,,,,,,,,,,,,,,,,,,,",
"....,,,,,,,,,,,,,,,,,,,,,,,,,,,,,,,,....====,,,,,,,,,,,,,,,,,,,,",
"....,,,,,,,,,,,,,,,,,,,,,,,,,,,,,,,,....====,,,,,,,,,,,,,,,,,,,,",
"....,,,,,,,,,,,,,,,,,,,,,,,,,,,,,,,,....====,,,,,,,,,,,,,,,,,,,,",
"....,,,,,,,,,,,,,,,,,,,,,,,,,,,,,,,,....====,,,,,,,,,,,,,,,,,,,,",
"....,,,,,,,,,,,,,,,,,,,,,,,,,,,,,,,,....====----,,,,,,,,,,,,,,,,",
"....,,,,,,,,,,,,,,,,,,,,,,,,,,,,,,,,....====----,,,,,,,,,,,,,,,,",
"....,,,,,,,,,,,,,,,,,,,,,,,,,,,,,,,,....====----,,,,,,,,,,,,,,,,",
"....,,,,,,,,,,,,,,,,,,,,,,,,,,,,,,,,....====----,,,,,,,,,,,,,,,,",
"....----,,,,,,,,,,,,,,,,,,,,,,,,----....========----,,,,,,,,,,,,",
"....----,,,,,,,,,,,,,,,,,,,,,,,,----....========----,,,,,,,,,,,,",
"....----,,,,,,,,,,,,,,,,,,,,,,,,----....========----,,,,,,,,,,,,",
"....----,,,,,,,,,,,,,,,,,,,,,,,,----....========----,,,,,,,,,,,,",
"....====----,,,,,,,,,,,,,,,,----====....========================",
"....====----,,,,,,,,,,,,,,,,----====....========================",
"....====----,,,,,,,,,,,,,,,,----====....========================",
"....====----,,,,,,,,,,,,,,,,----====....========================",
"....================================....&&&&====================",
"....================================....&&&&====================",
"....================================....&&&&====================",
"....================================....&&&&====================",
"....&&&&========================&&&&............................",
"....&&&&========================&&&&............................",
"....&&&&========================&&&&............................",
"....&&&&========================&&&&............................",
"................................................................",
"................................................................",
"................................................................",
"................................................................",
"....========================&&&&................................",
"....========================&&&&................................",
"....========================&&&&................................",
"....========================&&&&................................",
"....----,,,,,,,,----============........OOOO@@@@@@@@@@@@@@@@OOOO",
"....----,,,,,,,,----============........OOOO@@@@@@@@@@@@@@@@OOOO",
"....----,,,,,,,,----============........OOOO@@@@@@@@@@@@@@@@OOOO",
"....----,,,,,,,,----============........OOOO@@@@@@@@@@@@@@@@OOOO",
"....,,,,,,,,,,,,,,,,----========................................",
"....,,,,,,,,,,,,,,,,----========................................",
"....,,,,,,,,,,,,,,,,----========................................",
"....,,,,,,,,,,,,,,,,----========................................",
"....,,,,,,,,,,,,,,,,,,,,========................OOOO@@@@@@@@@@@@",
"....,,,,,,,,,,,,,,,,,,,,========................OOOO@@@@@@@@@@@@",
"....,,,,,,,,,,,,,,,,,,,,========................OOOO@@@@@@@@@@@@",
"....,,,,,,,,,,,,,,,,,,,,========................OOOO@@@@@@@@@@@@",
"....1111,,,,,,,,,,,,,,,,========................@@@@@@@@####****",
"....1111,,,,,,,,,,,,,,,,========................@@@@@@@@####****",
"....1111,,,,,,,,,,,,,,,,========................@@@@@@@@####****",
"....1111,,,,,,,,,,,,,,,,========................@@@@@@@@####****",
"....1111,,,,,,,,,,,,,,,,========................OOOO@@@@********",
"....1111,,,,,,,,,,,,,,,,========................OOOO@@@@********",
"....1111,,,,,,,,,,,,,,,,========................OOOO@@@@********",
"....1111,,,,,,,,,,,,,,,,========................OOOO@@@@********"
};